<svg width="14" height="15" viewBox="0 0 14 15" fill="none" xmlns="http://www.w3.org/2000/svg">
<path d="M13.8314 13.3407L11.9057 10.4856C11.9057 9.61162 11.9057 7.47604 11.9057 6.9236C11.9057 4.5214 10.2107 2.51902 7.96198 2.06777V0.970897C7.96194 0.434713 7.53127 0 6.99999 0C6.46871 0 6.03804 0.434713 6.03804 0.970897V2.06781C3.78934 2.5191 2.09432 4.52148 2.09432 6.92364C2.09432 7.86404 2.09432 9.94058 2.09432 10.4856L0.168647 13.3407C-0.0341943 13.6414 -0.0556453 14.0307 0.112898 14.3523C0.281441 14.6739 0.61232 14.875 0.972783 14.875H13.0272C13.3877 14.875 13.7185 14.6738 13.8871 14.3523C14.0557 14.0307 14.0342 13.6414 13.8314 13.3407Z" fill="#CECCCC"/>
</svg>
